<?xml version="1.0" encoding="UTF-8"?>
<svg width="62px" height="60px" viewBox="0 0 62 60" version="1.1" xmlns="http://www.w3.org/2000/svg" xmlns:xlink="http://www.w3.org/1999/xlink">
    <!-- Generator: Sketch 52.5 (67469) - http://www.bohemiancoding.com/sketch -->
    <title>Picto-autre</title>
    <desc>Created with Sketch.</desc>
    <g id="02_Tunnel" stroke="none" stroke-width="1" fill="none" fill-rule="evenodd">
        <g id="EasyRecyclage-/-Tunnel-sûr-mesure-/-A-Entreprise-/-2-DND-/-Devis-/-3" transform="translate(-1131.000000, -930.000000)" stroke="#5A5A5A">
            <g id="Bloc-principal" transform="translate(430.000000, 325.000000)">
                <g transform="translate(60.000000, 280.000000)" id="Mes-Contenants">
                    <g transform="translate(30.000000, 119.000000)">
                        <g id="Autres-déchets" transform="translate(580.000000, 188.000000)">
                            <g id="Picto-autre" transform="translate(32.000000, 17.000000)">
                                <g id="Plaque" transform="translate(0.000000, 35.000000)">
                                    <polygon id="Path-18" points="10.2006712 13.940942 30.9470097 21.5130077 48.5576778 11 19.625 9.07718345e-13 21.625 4 18.625 4.25790339 14.625 3.03932 14.625 5.827615 6.625 5.18496724 1 9 8.625 10.0806404 7.82031698 12"></polygon>
                                    <polyline id="Path-18" points="0.216770505 9.172385 0.216770505 11.2 5.4465499 11.940942 6.37279265 14.8632779 10.0275024 17 30.9470097 24.5130077 48.5576778 14 49.0620353 11"></polyline>
                                    <path d="M31,24.5 L31,21.5130077" id="Path-25" stroke-linecap="round"></path>
                                    <polyline id="Path-25" stroke-linecap="round" points="35.4928253 18 34.2991186 15 31.6875 14.4705849 31.4964127 12"></polyline>
                                </g>
                                <g id="Pneu" transform="translate(39.000000, 28.000000)">
                                    <path d="M6.17909875,16.6457492 C6.17909875,16.2034909 2.79149339,10.9818071 6.17909875,5.73167963 C9.56670411,0.481552182 12.9176463,1.54381899 16.875,2.76584283 C20.8323537,3.98786667 22.5356142,7.76841807 20.8323537,14.0831165 C19.6968467,18.2929154 16.1067406,20.2035544 10.0620353,19.8150336" id="Path-19" stroke-linecap="round"></path>
                                    <path d="M9.1754943,10.03932 C9.3402354,7.68709041 11.3599441,6.1512225 13.5,6.1512225 C15.6400559,6.1512225 17.7942324,7.88568307 17.3253555,11 C16.8564785,14.1143169 15.7258774,15.8863568 12.3243289,15.152615 C8.92278047,14.4188732 9.01075321,12.3915496 9.1754943,10.03932 Z" id="Path-20"></path>
                                    <path d="M13.5,1.80121956 L7.76162219,0.235618449 C5.35857934,0.241326854 3.33387194,2.21319487 1.6875,6.1512225 C0.365513624,9.31333839 0.870326031,12.827615 2.4635197,15.152615" id="Path-21" stroke-linecap="round"></path>
                                    <polyline id="Path-22" stroke-linecap="round" points="1.6875 13.2403621 2.76813707 12.2751873 3.58276457 13.4743525 4.83485864 13"></polyline>
                                    <polyline id="Path-22" stroke-linecap="round" points="0.990154321 9.29928881 2.43958104 8.29392796 3.25050984 9.55786887 4.81418361 8.9847775"></polyline>
                                    <polyline id="Path-22" stroke-linecap="round" points="2.29842893 5.11833687 4.10206128 4.31602299 4.6740918 5.69394589 6.5398841 5.11833687"></polyline>
                                    <polyline id="Path-22" stroke-linecap="round" points="4.46375528 1.84897573 6.8492259 1.73559016 6.8492259 2.88747088 9.23469652 2.4743525"></polyline>
                                    <path d="M12.9881711,6.1512225 C14.3707472,7.37999884 15.0620353,8.81017947 15.0620353,10.4417644 C15.0620353,12.8891418 13.7653613,14.952615 12.5364615,15.152615" id="Path-23"></path>
                                </g>
                                <path d="M13.2250588,35.6845579 L35.9778362,6.01586745 C37.6337758,4.13506666 39.1535275,3.18529974 40.5370915,3.16656667 C43.3726958,3.12817339 45.891815,3.35396503 48.1129047,5.32126465 C50.3339943,7.28856426 52.2050663,9.71188652 52.7360215,13.0357362 C53.2669766,16.3595859 52.8698605,19.9153816 52.8698605,21.9153816 C52.8698605,23.4795061 47.2458808,29.9247829 47.2458808,30.5420643" id="Path-24" stroke-linecap="round" transform="translate(33.118782, 19.423691) rotate(-7.000000) translate(-33.118782, -19.423691) "></path>
                                <polyline id="Path-25" stroke-linecap="round" transform="translate(30.539240, 22.681363) rotate(-7.000000) translate(-30.539240, -22.681363) " points="32.9245873 18.2577276 31.6624357 22.9557253 28.1538932 24.942599 28.6027099 27.1049975"></polyline>
                                <path d="M52.3718611,19.9381564 L49.5903113,18.9381564" id="Path-25" stroke-linecap="round" transform="translate(50.871861, 19.123549) rotate(-7.000000) translate(-50.871861, -19.123549) "></path>
                                <path d="M43.8016537,10.0246069 L42.4331079,11.8019919" id="Path-25" stroke-linecap="round" transform="translate(43.117381, 10.913299) rotate(-7.000000) translate(-43.117381, -10.913299) "></path>
                                <path d="M34.3555624,40.9688006 L49.9578414,20.2582202 C50.5644449,14.9360207 50.1125272,11.3131396 48.6020883,9.38957708 C46.3364299,6.50423328 44.0924337,4.39440538 41.8271006,5.70431377 C39.5617676,7.01422216 41.3547274,11.5505669 44.0924337,12.5667195 C45.9175712,13.2441546 46.4800712,12.5544267 45.7799337,10.4975359 L47.341969,10.4975359 C48.3833258,12.440063 48.3833258,14.0361771 47.341969,15.2858784 C46.3006121,16.5355797 40.4367332,24.2427525 29.7503323,38.4073968" id="Path-26" transform="translate(39.984446, 23.137895) rotate(-7.000000) translate(-39.984446, -23.137895) "></path>
                                <path d="M45.0275239,15.6766336 C42.3744615,15.7070911 39.980084,14.8962972 37.8443912,13.2442519 C35.2773686,11.2585554 34.184564,7.72760699 35.623808,4.40114517" id="Path-27" transform="translate(40.005513, 10.039303) rotate(-7.000000) translate(-40.005513, -10.039303) "></path>
                            </g>
                        </g>
                    </g>
                </g>
            </g>
        </g>
    </g>
</svg>