<?xml version="1.0" encoding="utf-8"?>
<!-- Generator: Adobe Illustrator 22.0.1, SVG Export Plug-In . SVG Version: 6.00 Build 0)  -->
<svg version="1.1" id="Calque_1" xmlns="http://www.w3.org/2000/svg" xmlns:xlink="http://www.w3.org/1999/xlink" x="0px" y="0px"
	 viewBox="0 0 25.5 25.4" style="enable-background:new 0 0 25.5 25.4;" xml:space="preserve">
<style type="text/css">
	.st0{fill:#FFFFFF;}
</style>
<title>Euro@2x</title>
<desc>Created with Sketch.</desc>
<g>
	<path class="st0" d="M17,15.1c-0.2-0.1-0.4,0-0.5,0.1c-0.6,1.2-1.4,1.7-2.7,1.7c-1.4,0-2.5-0.9-3-2.3h3.6c0.5,0,0.8-0.2,0.8-0.7
		v-0.1c0-0.4-0.3-0.7-0.8-0.7h-3.8v-0.9c0-0.1,0-0.1,0-0.2h3.8c0.5,0,0.8-0.2,0.8-0.7v-0.1c0-0.4-0.3-0.7-0.8-0.7h-3.6
		c0.5-1.4,1.5-2.3,2.9-2.3c1.3,0,2.1,0.5,2.8,1.6C16.6,10,16.8,10,17,10c0.3-0.1,0.7-0.4,0.7-0.8c0-0.9-1.5-2.3-3.9-2.3
		c-2.3,0-4.1,1.4-4.7,3.7H8.1c-0.5,0-0.8,0.2-0.8,0.7v0.1c0,0.4,0.3,0.7,0.8,0.7H9c0,0.1,0,0.2,0,0.2v0.9H8.1
		c-0.5,0-0.8,0.2-0.8,0.7v0.1c0,0.4,0.3,0.7,0.8,0.7h1c0.5,2.4,2.3,3.8,4.8,3.8c2.3,0,3.9-1.5,3.9-2.4C17.8,15.5,17.4,15.2,17,15.1z
		"/>
	<path class="st0" d="M13,1.6c-6.1,0-11,4.9-11,11s4.9,11,11,11s11-4.9,11-11S19.1,1.6,13,1.6z M13,22.6c-5.5,0-10-4.5-10-10
		c0-5.5,4.5-10,10-10c5.5,0,10,4.5,10,10C23,18.1,18.5,22.6,13,22.6z"/>
</g>
</svg>
