<svg xmlns="http://www.w3.org/2000/svg" viewBox="0 0 39.45 39.46"><defs><style>.cls-1{fill:#fff;}.cls-2{fill:none;stroke:#fff;stroke-miterlimit:3.86;stroke-width:0.28px;}.cls-3{fill:#164194;}</style></defs><title>logo-reisswolf</title><g id="Ebene_2" data-name="Ebene 2"><g id="Ebene_1-2" data-name="Ebene 1"><rect class="cls-1" x="6.37" y="1.13" width="24.14" height="24.14"/><rect class="cls-2" x="6.37" y="1.13" width="24.14" height="24.14"/><path class="cls-3" d="M6.37,25.27H30.52V1.13H6.37ZM5.24,0h26.4V26.4H5.24Z"/><path class="cls-3" d="M18.44,8.1h0v2.81l2.11,3.44,2.11-3.44,2.12,3.44V2.4c0-.48-.88-1.21-1.68.1L19.92,8.1Zm0,0H17L13.8,2.5c-.81-1.31-1.69-.58-1.69-.1v12l2.12-3.44,2.11,3.44,2.1-3.44V8.1"/><path class="cls-3" d="M18.44,24.6A1.28,1.28,0,0,0,19.53,24l4.78-8.45-1.65-2.71-2.11,3.52-2.11-3.52Zm0-11.78-2.1,3.52-2.11-3.52-1.65,2.71L17.36,24a1.27,1.27,0,0,0,1.08.62V12.82"/><path class="cls-3" d="M38.57,30.19V30a1.14,1.14,0,0,0,.25-.06.85.85,0,0,0,.25-.17.69.69,0,0,0,.18-.24.93.93,0,0,0,0-.29.94.94,0,0,0,0-.3.62.62,0,0,0-.17-.25.7.7,0,0,0-.25-.17.76.76,0,0,0-.26-.06v-.16a.89.89,0,0,1,.32.08,1,1,0,0,1,.3.2.88.88,0,0,1,.2.3.81.81,0,0,1,.06.35.88.88,0,0,1-.06.36.86.86,0,0,1-.21.29.88.88,0,0,1-.3.2.7.7,0,0,1-.31.07"/><path class="cls-3" d="M38.57,29.44l.15.32H39l-.23-.46a.27.27,0,0,0,.17-.1A.24.24,0,0,0,39,29a.25.25,0,0,0-.11-.22.55.55,0,0,0-.31-.07v.16a.2.2,0,0,1,.11,0,.13.13,0,0,1,0,.12.12.12,0,0,1,0,.11.2.2,0,0,1-.11,0v.25"/><path class="cls-3" d="M38.57,28.34v.16h0a.72.72,0,0,0-.29.06.61.61,0,0,0-.24.15.76.76,0,0,0-.18.26.8.8,0,0,0-.06.3.72.72,0,0,0,.06.29.78.78,0,0,0,.16.24.83.83,0,0,0,.25.18.8.8,0,0,0,.3.06h0v.15h0a.88.88,0,0,1-.65-.28.72.72,0,0,1-.2-.29.84.84,0,0,1-.07-.35,1,1,0,0,1,0-.25,1.6,1.6,0,0,1,.1-.23.92.92,0,0,1,.33-.32.84.84,0,0,1,.46-.13h0"/><path class="cls-3" d="M38.57,28.74h-.42v1h.25v-.42h.12l0,.1v-.25H38.4v-.3h.17v-.16"/><path class="cls-3" d="M27.12,34V33h0a1.52,1.52,0,0,0,1.19-.52,2.06,2.06,0,0,0,0-2.64,1.53,1.53,0,0,0-1.19-.54h0v-1h0a2.71,2.71,0,0,1,1.08.22,2.91,2.91,0,0,1,.93.62,2.85,2.85,0,0,1,.62.94A3.13,3.13,0,0,1,30,31.15a3.23,3.23,0,0,1-.21,1.12,2.91,2.91,0,0,1-.62.93,3.1,3.1,0,0,1-.94.63,2.8,2.8,0,0,1-1.07.21h0"/><polygon class="cls-3" points="30.52 33.9 30.52 28.38 31.66 28.38 31.66 32.89 33.47 32.89 33.47 33.9 30.52 33.9"/><polygon class="cls-3" points="34.23 33.9 34.23 28.38 37.37 28.38 37.37 29.37 35.37 29.37 35.37 30.51 37.37 30.51 37.37 31.51 35.37 31.51 35.37 33.9 34.23 33.9"/><path class="cls-3" d="M27.12,28.26v1a1.5,1.5,0,0,0-1.19.54,1.88,1.88,0,0,0-.48,1.32,1.92,1.92,0,0,0,.47,1.32,1.53,1.53,0,0,0,1.2.52v1a2.83,2.83,0,0,1-.95-.16,3.39,3.39,0,0,1-.86-.5,3,3,0,0,1-.77-1,3.06,3.06,0,0,1-.26-1.24A3,3,0,0,1,24.49,30a2.62,2.62,0,0,1,.62-.93,2.81,2.81,0,0,1,.93-.62,2.71,2.71,0,0,1,1.08-.22"/><path class="cls-3" d="M18.4,33.9V29.6l.42,1.84a4.85,4.85,0,0,1,.09.57c0,.21,0,.43.06.68a11.55,11.55,0,0,1,.25-1.22l0-.08.77-3h1.13l.79,3c.05.19.1.4.14.62s.08.46.12.73a5.19,5.19,0,0,1,0-.68,5.64,5.64,0,0,1,.13-.67l.69-3h1.12L22.79,33.9h-1.1l-1-3.53a3.72,3.72,0,0,1-.11-.48c0-.16,0-.33-.05-.51a4.29,4.29,0,0,1-.06.53c0,.16-.06.32-.1.46l-1,3.53H18.4"/><path class="cls-3" d="M3.85,33.9H2.54l-.75-1.38V30.7a.84.84,0,0,0,.43-.13A.6.6,0,0,0,2.45,30a.7.7,0,0,0-.24-.58,1,1,0,0,0-.42-.14v-.92a2.11,2.11,0,0,1,1.29.38,1.4,1.4,0,0,1,.49,1.17,1.51,1.51,0,0,1-.33,1,1.34,1.34,0,0,1-.86.47L3.85,33.9"/><polygon class="cls-3" points="18.4 29.6 18.4 33.9 18.37 33.9 16.98 28.38 18.11 28.38 18.4 29.6"/><polygon class="cls-3" points="4.11 33.9 4.11 28.38 7.24 28.38 7.24 29.37 5.24 29.37 5.24 30.51 7.24 30.51 7.24 31.51 5.24 31.51 5.24 32.89 7.24 32.89 7.24 33.9 4.11 33.9"/><rect class="cls-3" x="7.97" y="28.38" width="1.14" height="5.51"/><path class="cls-3" d="M9.57,33.2l.64-.74a1.06,1.06,0,0,0,.38.48,1.13,1.13,0,0,0,.6.17.93.93,0,0,0,.63-.19.66.66,0,0,0,.23-.54c0-.26-.26-.51-.77-.77l-.4-.21a2.86,2.86,0,0,1-1-.73,1.49,1.49,0,0,1,.25-2,2.1,2.1,0,0,1,1.35-.43,2,2,0,0,1,.84.17A1.78,1.78,0,0,1,13,29l-.67.67a1.06,1.06,0,0,0-.32-.37,1,1,0,0,0-.48-.11.86.86,0,0,0-.55.17.56.56,0,0,0-.2.45c0,.3.27.56.82.81l.25.11a2.81,2.81,0,0,1,1,.72,1.43,1.43,0,0,1,.33.93,1.6,1.6,0,0,1-.51,1.23,2,2,0,0,1-1.38.46,2.43,2.43,0,0,1-1-.21,1.52,1.52,0,0,1-.65-.63"/><path class="cls-3" d="M13.33,33.2l.64-.74a1,1,0,0,0,.38.48,1.13,1.13,0,0,0,.6.17.93.93,0,0,0,.63-.19.67.67,0,0,0,.24-.54c0-.26-.26-.51-.78-.77l-.4-.21a3,3,0,0,1-1-.73,1.34,1.34,0,0,1-.27-.86,1.41,1.41,0,0,1,.52-1.13,2.1,2.1,0,0,1,1.35-.43,2,2,0,0,1,.84.17,1.78,1.78,0,0,1,.62.55l-.67.67a1,1,0,0,0-.32-.37,1,1,0,0,0-.48-.11.81.81,0,0,0-.54.17.57.57,0,0,0-.21.45c0,.3.27.56.82.81l.25.11a2.9,2.9,0,0,1,1,.72,1.43,1.43,0,0,1,.33.93,1.57,1.57,0,0,1-.51,1.23A2,2,0,0,1,15,34a2.46,2.46,0,0,1-1-.21,1.47,1.47,0,0,1-.65-.63"/><path class="cls-3" d="M1.79,32.52l-.65-1.2V33.9H0V28.38H1.79v.92a3.33,3.33,0,0,0-.48,0H1.14v1.45h.17a3.33,3.33,0,0,0,.48,0v1.82"/><path class="cls-3" d="M2.63,36.59c.49,0,1.05.21,1,.83H3.12c0-.35-.23-.46-.52-.46s-.48.13-.48.43.45.33.64.38c.44.15,1,.21,1,.82s-.62.87-1.16.87-1-.26-1-.89h.53a.49.49,0,0,0,.53.51c.29,0,.59-.12.59-.47,0-.6-1.6-.15-1.6-1.2,0-.57.56-.82,1-.82"/><path class="cls-3" d="M6,37.76c0-.45-.19-.8-.67-.8a.71.71,0,0,0-.66.8Zm-1.33.36c0,.47.15,1,.66,1a.56.56,0,0,0,.64-.55h.52a1.05,1.05,0,0,1-1.17.93c-.84,0-1.17-.62-1.17-1.42s.38-1.45,1.21-1.45a1.13,1.13,0,0,1,1.16,1.28v.25H4.62"/><path class="cls-3" d="M8.56,37.54c0-.34-.18-.58-.54-.58s-.66.43-.66,1.06.18,1.06.66,1.06c.33,0,.53-.22.56-.6h.5a1,1,0,0,1-1.06,1c-.85,0-1.18-.62-1.18-1.42s.39-1.45,1.22-1.45a1,1,0,0,1,1,.95h-.5"/><path class="cls-3" d="M10.13,39.37h-.5v-2.7h.5v.52h0a.73.73,0,0,1,.77-.56h.17v.48a.75.75,0,0,0-.21,0c-.63,0-.74.36-.74.93v1.34"/><path class="cls-3" d="M13.2,37.76c0-.45-.19-.8-.67-.8s-.66.36-.66.8Zm-1.33.36c0,.47.15,1,.66,1a.55.55,0,0,0,.63-.55h.53a1.05,1.05,0,0,1-1.17.93c-.84,0-1.18-.62-1.18-1.42s.39-1.45,1.22-1.45a1.13,1.13,0,0,1,1.16,1.28v.25H11.87"/><path class="cls-3" d="M14.38,36.67v-.58l.5-.16v.74l.6,0V37h-.6v1.75c0,.19.14.28.32.28a1.15,1.15,0,0,0,.26,0v.39c-.11,0-.22,0-.34,0a1.84,1.84,0,0,1-.33,0,.51.51,0,0,1-.3-.18c-.08-.13-.11-.14-.11-.5V37h-.45v-.39l.45,0"/><rect class="cls-3" x="15.94" y="38.73" width="0.61" height="0.65"/><path class="cls-3" d="M19.53,36.59c.5,0,1.06.21,1,.83H20c0-.35-.24-.46-.53-.46a.42.42,0,0,0-.48.43c0,.3.45.33.64.38.44.15,1,.21,1,.82s-.63.87-1.17.87-1-.26-1-.89H19a.49.49,0,0,0,.53.51c.3,0,.59-.12.59-.47,0-.6-1.59-.15-1.59-1.2,0-.57.55-.82,1-.82"/><path class="cls-3" d="M22.85,37.76c0-.45-.19-.8-.67-.8a.71.71,0,0,0-.66.8Zm-1.33.36c0,.47.15,1,.66,1a.56.56,0,0,0,.64-.55h.52a1,1,0,0,1-1.16.93c-.85,0-1.18-.62-1.18-1.42s.39-1.45,1.22-1.45a1.13,1.13,0,0,1,1.16,1.28v.25H21.52"/><path class="cls-3" d="M24.52,39.37H24v-2.7h.5v.52h0a.73.73,0,0,1,.77-.56h.17v.48a.71.71,0,0,0-.21,0c-.63,0-.74.36-.74.93v1.34"/><polygon class="cls-3" points="26.65 39.38 25.55 36.67 26.1 36.67 26.94 38.81 27.75 36.67 28.3 36.67 27.15 39.38 26.65 39.38"/><path class="cls-3" d="M28.75,36.67h.5v2.7h-.5Zm0-1.18h.59V36h-.59Z"/><path class="cls-3" d="M31.55,37.54c0-.34-.18-.58-.54-.58s-.66.43-.66,1.06.18,1.06.66,1.06c.33,0,.53-.22.56-.6h.5a1,1,0,0,1-1.06,1c-.85,0-1.18-.62-1.18-1.42s.38-1.45,1.22-1.45a1,1,0,0,1,1,.95h-.5"/><path class="cls-3" d="M34.25,37.76c0-.45-.18-.8-.66-.8s-.66.36-.66.8Zm-1.32.36c0,.47.15,1,.66,1a.55.55,0,0,0,.63-.55h.53a1.05,1.05,0,0,1-1.17.93c-.84,0-1.18-.62-1.18-1.42s.39-1.45,1.22-1.45a1.13,1.13,0,0,1,1.16,1.28v.25H32.93"/><rect class="cls-3" x="35.36" y="38.73" width="0.61" height="0.65"/></g></g></svg>