<?xml version="1.0" encoding="UTF-8"?>
<svg width="39px" height="31px" viewBox="0 0 39 31" version="1.1" xmlns="http://www.w3.org/2000/svg" xmlns:xlink="http://www.w3.org/1999/xlink">
    <!-- Generator: Sketch 52.2 (67145) - http://www.bohemiancoding.com/sketch -->
    <title>Group@1x</title>
    <desc>Created with Sketch.</desc>
    <g id="05_Blog" stroke="none" stroke-width="1" fill="none" fill-rule="evenodd">
        <g id="EasyRecyclage-/-05_Blog-/-B_PageArticle---1-Copy-3" transform="translate(-1251.000000, -638.000000)" fill="#FFFFFF" fill-rule="nonzero" stroke="#283071" stroke-width="0.5">
            <g id="Group-8" transform="translate(1231.000000, 612.000000)">
                <g id="Group" transform="translate(21.000000, 26.000000)">
                    <path d="M33.2722296,0.516666667 L3.83993633,0.516666667 C1.73901045,0.516666667 0.0299762228,2.5265 0.0299762228,4.99616667 L0.0299762228,26.0038333 C0.0299762228,28.4735 1.73901045,30.4833333 3.83993633,30.4833333 L33.2722296,30.4833333 C35.3731555,30.4833333 37.0821897,28.4735 37.0821897,26.0038333 L37.0821897,4.99616667 C37.0821897,2.5265 35.3731555,0.516666667 33.2722296,0.516666667 Z M34.4461472,26.0038333 C34.4461472,26.7643667 33.9189387,27.3833333 33.2722296,27.3833333 L3.83993633,27.3833333 C3.19322723,27.3833333 2.66601873,26.7643667 2.66601873,26.0038333 L2.66601873,4.99616667 C2.66601873,4.23563333 3.19322723,3.61666667 3.83993633,3.61666667 L33.2722296,3.61666667 C33.9189387,3.61666667 34.4461472,4.23563333 34.4461472,4.99616667 L34.4461472,26.0038333 Z" id="Shape"></path>
                    <polygon id="Shape" points="18.556083 14.2469309 5.54721319 5.79286667 4.03236743 7.79028676 18.556083 17.228422 33.0797985 7.79028676 31.5649528 5.79286667"></polygon>
                </g>
            </g>
        </g>
    </g>
</svg>