<?xml version="1.0" encoding="utf-8"?>
<!-- Generator: Adobe Illustrator 23.0.2, SVG Export Plug-In . SVG Version: 6.00 Build 0)  -->
<svg version="1.1" id="Calque_1" xmlns="http://www.w3.org/2000/svg" xmlns:xlink="http://www.w3.org/1999/xlink" x="0px" y="0px"
	 viewBox="0 0 100 125" style="enable-background:new 0 0 100 125;" xml:space="preserve">
<style type="text/css">
	.st0{fill:#FFFFFF;}
</style>
<title>19</title>
<g>
	<path class="st0" d="M89.9,49.9V23c0-5.5-4.5-10-10-10H14.5c-5.5,0-10,4.5-10,10v38.5c0,5.5,4.5,10,10,10h37.4
		c3.7,11.7,16.3,18.2,28,14.5s18.2-16.3,14.5-28C93.5,55,91.9,52.3,89.9,49.9L89.9,49.9z M85.9,46.3c-5.6-3.9-12.7-5-19.3-3
		l-5.9-6.4l24.1-17.3c0.7,1,1,2.2,1,3.4L85.9,46.3z M79.9,17l1.5,0.2L47.2,41.7L13,17.2l1.5-0.2H79.9z M9,63.9
		c-0.3-0.8-0.5-1.6-0.5-2.4V23c0-1.2,0.3-2.4,1-3.4l24.2,17.3L9,63.9z M14.5,67.5c-0.9,0-1.9-0.3-2.7-0.7L37,39.3l9,6.5
		c0.7,0.5,1.6,0.5,2.3,0l9.1-6.5l5.3,5.7C54.5,49.3,49.8,58.3,51,67.5H14.5z M73.2,83c-10.1,0-18.3-8.2-18.3-18.3
		c0-10.1,8.2-18.3,18.3-18.3c10.1,0,18.3,8.2,18.3,18.3S83.3,83,73.2,83L73.2,83z"/>
	<path class="st0" d="M80,60.5l-8.6,5.3l-2.6-3.9c-0.8-0.8-2-0.8-2.8,0c-0.6,0.6-0.7,1.4-0.5,2.1l3.6,5.5c0.6,0.9,1.8,1.2,2.7,0.6
		l10.3-6.3c0.8-0.8,0.8-2,0-2.8C81.6,60.4,80.7,60.2,80,60.5z"/>
</g>
</svg>
