<?xml version="1.0" encoding="utf-8"?>
<!-- Generator: Adobe Illustrator 23.0.2, SVG Export Plug-In . SVG Version: 6.00 Build 0)  -->
<svg version="1.1" id="Calque_1" xmlns="http://www.w3.org/2000/svg" xmlns:xlink="http://www.w3.org/1999/xlink" x="0px" y="0px"
	 viewBox="0 0 512 640" style="enable-background:new 0 0 512 640;" xml:space="preserve">
<style type="text/css">
	.st0{fill:#FFFFFF;}
</style>
<g>
	<path class="st0" d="M112.8,240.3H75.5c-9.9,0-18,8.1-18,18c0,9.9,8.1,18,18,18h37.4c9.9,0,18-8.1,18-18S122.8,240.3,112.8,240.3z"
		/>
	<path class="st0" d="M130.9,313c0-9.9-8.1-18-18-18h-83c-9.9,0-18,8.1-18,18s8.1,18,18,18h83C122.8,331,130.9,323,130.9,313z"/>
	<path class="st0" d="M112.8,181h-73c-9.9,0-18,8.1-18,18s8.1,18,18,18h73c9.9,0,18-8.1,18-18S122.8,181,112.8,181z"/>
	<path class="st0" d="M456.7,111.7H190.3c-24,0-43.4,19.5-43.4,43.4v201.8c0,24,19.5,43.4,43.4,43.4h266.4c24,0,43.5-19.5,43.5-43.4
		V155.1C500.1,131.1,480.6,111.7,456.7,111.7z M456.7,147.6c1.7,0,3.2,0.6,4.4,1.5L333.8,256.4c-5.9,5-14.6,5-20.5,0L185.9,149.1
		c1.2-0.9,2.8-1.5,4.4-1.5L456.7,147.6L456.7,147.6z M456.7,364.4H190.3c-4.1,0-7.4-3.3-7.4-7.4V193.7L290,283.9
		c9.7,8.2,21.6,12.2,33.5,12.2s23.8-4.1,33.5-12.2l107.2-90.3v163.2C464.1,361,460.8,364.4,456.7,364.4z"/>
</g>
</svg>
