<?xml version="1.0" encoding="utf-8"?>
<!-- Generator: Adobe Illustrator 23.0.2, SVG Export Plug-In . SVG Version: 6.00 Build 0)  -->
<svg version="1.1" xmlns="http://www.w3.org/2000/svg" xmlns:xlink="http://www.w3.org/1999/xlink" x="0px" y="0px"
	 viewBox="0 0 100 125" style="enable-background:new 0 0 100 125;" xml:space="preserve">
<style type="text/css">
	.st0{fill:#FFFFFF;}
</style>
<g id="Calque_2">
</g>
<g id="Calque_1">
	<g>
		<path class="st0" d="M86.5,73.6l-17.8-9.2c-2.5-1.3-5.6-0.6-7.3,1.6l-6.5,8.4c-6.4-3.4-11.2-6.7-16.8-12.3
			c-6-6-9.2-10.9-12.4-17.1l8.3-6.5c2.2-1.7,2.9-4.8,1.6-7.3l-9.2-17.7c-1.6-3.1-5.6-4.1-8.5-2.2L6.6,18.9c-2.6,1.8-4.1,4.8-3.9,7.9
			c0.2,3.2,0.6,7.3,1.4,10.1c3.3,12.7,11.2,25.8,22.4,36.9c11.1,11.1,24.2,19,36.9,22.4c2.8,0.7,6.9,1.1,10.2,1.4
			c3.2,0.2,6.3-1.3,8-4L89,82.1C90.6,79.1,89.5,75.2,86.5,73.6z"/>
		<path class="st0" d="M50.5,39.8c2.2,0.6,4.4,1.8,6.1,3.6c1.8,1.8,3,3.9,3.6,6.1c0.5,1.8,2.2,3,4.1,2.9h0.4
			c2.6-0.1,4.5-2.6,3.8-5.1c-1-3.6-2.9-7.1-5.8-9.9c-2.9-2.9-6.3-4.8-9.9-5.8c-2.5-0.7-5,1.2-5.1,3.8v0.4
			C47.5,37.6,48.7,39.3,50.5,39.8z"/>
		<path class="st0" d="M51.7,25.4c5.5,1,10.8,3.6,15,7.8c4.3,4.3,6.9,9.5,7.8,15c0.4,2,2.2,3.5,4.3,3.4h0.3c2.5-0.1,4.3-2.4,3.8-4.8
			c-1.3-7.2-4.7-14.1-10.2-19.7c-5.6-5.6-12.4-9-19.7-10.2c-2.4-0.4-4.7,1.4-4.8,3.8V21C48.2,23.2,49.7,25,51.7,25.4z"/>
		<path class="st0" d="M97.5,46.2C96,35.5,91.2,25.2,83,17S64.5,4,53.8,2.5c-2.4-0.3-4.6,1.4-4.7,3.9v0.4c-0.1,2.2,1.5,4,3.6,4.3
			c8.9,1.2,17.4,5.3,24.2,12.1S87.7,38.6,89,47.4c0.3,2.1,2.1,3.7,4.3,3.6h0.4C96,50.8,97.8,48.6,97.5,46.2z"/>
	</g>
</g>
</svg>
