<?xml version="1.0" encoding="utf-8"?>
<!-- Generator: Adobe Illustrator 22.1.0, SVG Export Plug-In . SVG Version: 6.00 Build 0)  -->
<svg width="18px" height="18px" version="1.1" id="Ebene_1" xmlns="http://www.w3.org/2000/svg" xmlns:xlink="http://www.w3.org/1999/xlink" x="0px" y="0px"
	 viewBox="0 0 15.3 15.3" style="enable-background:new 0 0 15.3 15.3;" xml:space="preserve">
<metadata><?xpacket begin="﻿" id="W5M0MpCehiHzreSzNTczkc9d"?>
<x:xmpmeta xmlns:x="adobe:ns:meta/" x:xmptk="Adobe XMP Core 5.6-c143 79.161356, 2017/09/07-01:11:22        ">
   <rdf:RDF xmlns:rdf="http://www.w3.org/1999/02/22-rdf-syntax-ns#">
      <rdf:Description rdf:about=""/>
   </rdf:RDF>
</x:xmpmeta>
                                                                                                    
                                                                                                    
                                                                                                    
                                                                                                    
                                                                                                    
                                                                                                    
                                                                                                    
                                                                                                    
                                                                                                    
                                                                                                    
                                                                                                    
                                                                                                    
                                                                                                    
                                                                                                    
                                                                                                    
                                                                                                    
                                                                                                    
                                                                                                    
                                                                                                    
                                                                                                    
                           
<?xpacket end="w"?></metadata>
<style type="text/css">
	.st0{fill:#FFFFFF;}
</style>
<g>
	<path class="st0" d="M11.4,15.3c-2.9,0-5.8-2.6-7.4-4.1C2.6,9.7,0,6.7,0,3.9C0,1.4,2.1,0.1,3,0C4-0.1,4.5,0.6,4.8,1
		C5,1.2,5.5,2.1,6,2.8l0.4,0.7c0.5,0.7,0.4,1.8-0.4,2.5L5.8,6C5.6,6.2,5.4,6.4,5.4,6.5c0,0.2,0.1,0.8,1.4,2c1.3,1.3,1.8,1.4,2,1.4
		c0.2,0,0.3-0.2,0.5-0.5l0.1-0.1c0.7-0.9,1.8-0.9,2.5-0.4l0,0l0.6,0.4c0.7,0.4,1.6,1,1.8,1.2c0.4,0.3,1.2,0.8,1,1.9
		C15.2,13.2,13.9,15.3,11.4,15.3z M3.2,1.5C3.2,1.5,3.2,1.5,3.2,1.5C3,1.5,1.5,2.3,1.5,3.9c0,1.7,1.3,4,3.6,6.3
		c2.3,2.3,4.6,3.6,6.3,3.6c1.6,0,2.3-1.5,2.4-1.7c0-0.1,0-0.1-0.3-0.4c-0.3-0.2-1.2-0.8-1.8-1.2L11,10.2c-0.1,0-0.3-0.1-0.5,0.1
		l-0.1,0.1c-0.3,0.4-0.8,1-1.6,1C8,11.5,7,10.9,5.7,9.6C4.4,8.3,3.8,7.3,3.9,6.5c0-0.9,0.7-1.3,1-1.6L5,4.8c0.3-0.2,0.2-0.4,0.1-0.5
		L4.7,3.6C4.3,3,3.7,2.1,3.6,1.9C3.4,1.6,3.3,1.5,3.2,1.5z"/>
</g>
</svg>
