<?xml version="1.0" encoding="utf-8"?>
<!-- Generator: Adobe Illustrator 23.0.2, SVG Export Plug-In . SVG Version: 6.00 Build 0)  -->
<svg version="1.1" id="Calque_1" xmlns="http://www.w3.org/2000/svg" xmlns:xlink="http://www.w3.org/1999/xlink" x="0px" y="0px"
	 viewBox="0 0 100 125" style="enable-background:new 0 0 100 125;" xml:space="preserve">
<style type="text/css">
	.st0{fill:#FFFFFF;}
</style>
<path class="st0" d="M72.2,88.7H58H57H14.2V11.4h58v35.4l6.4-11.5V11.6c0-3.6-2.5-6.6-6.2-6.6H14c-3.6,0-6.2,2.9-6.2,6.6V89
	c0,3.6,2.5,6.2,6.2,6.2h58.5c3.6,0,6.2-2.5,6.2-6.2V67.8l-6.4,11.5V88.7z"/>
<rect x="19.8" y="21.5" class="st0" width="35.9" height="4.6"/>
<rect x="19.8" y="42.7" class="st0" width="35.9" height="4.6"/>
<rect x="19.8" y="32.6" class="st0" width="46.9" height="4.6"/>
<rect x="19.8" y="53.8" class="st0" width="46.9" height="4.6"/>
<rect x="19.8" y="63.9" class="st0" width="35.9" height="4.6"/>
<polygon class="st0" points="88.5,28.2 86.8,31.2 86,32.5 92.5,36.2 93.2,34.9 95,31.9 "/>
<polygon class="st0" points="61.2,74.5 61.2,82.3 67.8,78.3 90.7,38.6 84.2,34.9 "/>
<polygon class="st0" points="28.6,76 26.5,74 24.2,76.4 21.8,74 19.8,76 22.1,78.4 19.8,80.8 21.8,82.8 24.2,80.4 26.5,82.8 
	28.6,80.8 26.2,78.4 "/>
<g>
	<rect x="30.7" y="80.4" class="st0" width="25" height="1.9"/>
</g>
</svg>
