<svg id="Ebene_1" data-name="Ebene 1" xmlns="http://www.w3.org/2000/svg" viewBox="0 0 800 800"><defs><style>.cls-1{fill:#fff;}</style></defs><title>social-linkedin</title><path class="cls-1" d="M422.2,371v-.93c-.19.31-.4.62-.59.93Z"/><path class="cls-1" d="M650.65,104H149.32c-24,0-43.46,19-43.46,42.42V653.59c0,23.41,19.47,42.42,43.46,42.42H650.65c24,0,43.49-19,43.49-42.42V146.41C694.14,123,674.67,104,650.65,104ZM284.17,599.57H195.32V332.25h88.85ZM239.75,295.74h-.59c-29.81,0-49.09-20.53-49.09-46.18,0-26.22,19.89-46.18,50.26-46.18s49.11,20,49.7,46.18C290,275.21,270.73,295.74,239.75,295.74ZM604.57,599.57H515.72v-143c0-35.93-12.85-60.44-45-60.44-24.54,0-39.15,16.53-45.59,32.51-2.35,5.71-2.92,13.68-2.92,21.67V599.57H333.35s1.16-242.26,0-267.32H422.2v37.84C434,351.89,455.12,326,502.29,326c58.45,0,102.28,38.21,102.28,120.34Z"/></svg>