<svg id="Ebene_1" data-name="Ebene 1" xmlns="http://www.w3.org/2000/svg" viewBox="0 0 800 800"><defs><style>.cls-1{fill:#fff;}</style></defs><title>social-youtube</title><path class="cls-1" d="M585.25,386.47H214.75A106.67,106.67,0,0,0,108.11,493.14v85.71A106.65,106.65,0,0,0,214.75,685.5h370.5A106.66,106.66,0,0,0,691.89,578.85V493.14A106.68,106.68,0,0,0,585.25,386.47ZM292.59,453.21H258.15V624.36H224.87V453.21H190.44V424.08H292.59ZM389.9,624.36H360.38V608.17a63.28,63.28,0,0,1-17.06,13.64,35.6,35.6,0,0,1-17.15,4.73c-6.85,0-11.94-2.18-15.43-6.61s-5.18-11-5.18-19.8V476.6h29.52V590c0,3.49.64,6,1.83,7.56s3.31,2.36,6.08,2.36c2.12,0,4.9-1,8.23-3.1a40.1,40.1,0,0,0,9.16-7.94V476.6H389.9Zm107.16-30.51q0,15.66-6.95,24.06c-4.6,5.59-11.34,8.34-20.07,8.34A35.15,35.15,0,0,1,454.58,623,37.79,37.79,0,0,1,442,613v11.32H412.1V424.08H442v64.5a46,46,0,0,1,12.65-10.24,28.9,28.9,0,0,1,13.64-3.52c9.35,0,16.47,3.11,21.4,9.41s7.41,15.52,7.41,27.62ZM599.47,554H543v27.84c0,7.77.94,13.17,2.88,16.19s5.3,4.49,10,4.49c4.92,0,8.31-1.28,10.28-3.82s2.94-8.16,2.94-16.86v-6.73h30.38v7.58c0,15.15-3.67,26.55-11.15,34.26S569.91,628.4,555.2,628.4q-19.86,0-31.26-12.17c-7.57-8.06-11.41-19.26-11.41-33.51V516.35c0-12.77,4.19-23.27,12.56-31.34s19.09-12.07,32.33-12.07q20.26,0,31.17,11.2t10.88,32.21Z"/><path class="cls-1" d="M556.15,498.78c-4.72,0-8.07,1.33-10.11,4.09-2.08,2.59-3.06,7-3.06,13.24V531h26.11V516.11c0-6.2-1.06-10.65-3.12-13.24C564,500.11,560.65,498.78,556.15,498.78Z"/><path class="cls-1" d="M454.32,498.28a14.58,14.58,0,0,0-6.27,1.43,21.42,21.42,0,0,0-6.09,4.51v92a25.27,25.27,0,0,0,7,5.26,17.25,17.25,0,0,0,7.14,1.59c3.62,0,6.27-1,8-3.16s2.54-5.45,2.54-10.17V513.47c0-5-1-8.77-3.09-11.36S458.29,498.28,454.32,498.28Z"/><polygon class="cls-1" points="263.26 335.15 300.69 335.15 300.69 243.61 344.25 114.5 306.22 114.5 283.06 202.7 280.7 202.7 256.38 114.5 218.69 114.5 263.26 247.73 263.26 335.15"/><path class="cls-1" d="M395,339.26q22.66,0,35.61-11.89c8.58-8,12.88-18.83,12.88-32.76V210.53c0-12.39-4.39-22.59-13.13-30.46s-20.09-11.79-33.86-11.79c-15.1,0-27.16,3.73-36.09,11.19S347,196.94,347,209.6V294c0,13.84,4.37,24.8,13.08,33S380.43,339.26,395,339.26Zm-13.79-130.9a11,11,0,0,1,3.77-8.63,14.73,14.73,0,0,1,9.91-3.26c4.41,0,7.95,1.07,10.67,3.26a10.68,10.68,0,0,1,4.06,8.63V297c0,4.35-1.34,7.79-4,10.29s-6.23,3.73-10.73,3.73-7.79-1.19-10.14-3.68-3.54-5.88-3.54-10.34Z"/><path class="cls-1" d="M493.65,337.52c6.24,0,12.66-1.78,19.27-5.2a70.5,70.5,0,0,0,19.15-15.2v18h33.25V172.39H532.07V295.94a45.83,45.83,0,0,1-10.23,8.75c-3.77,2.28-6.86,3.42-9.3,3.42-3.12,0-5.41-.85-6.75-2.61s-2.16-4.49-2.16-8.32V172.39H470.44v136q0,14.55,5.82,21.76C480.18,335.05,485.93,337.52,493.65,337.52Z"/></svg>